<svg width="21" height="19" viewBox="0 0 21 19" fill="none" xmlns="http://www.w3.org/2000/svg">
<path d="M18.6003 2.39413C18.1321 1.92572 17.5763 1.55414 16.9644 1.30063C16.3526 1.04711 15.6968 0.916626 15.0345 0.916626C14.3722 0.916626 13.7164 1.04711 13.1046 1.30063C12.4928 1.55414 11.9369 1.92572 11.4687 2.39413L10.497 3.3658L9.52534 2.39413C8.57962 1.44842 7.29695 0.917116 5.95951 0.917116C4.62206 0.917116 3.33939 1.44842 2.39367 2.39413C1.44796 3.33985 0.916657 4.62252 0.916656 5.95997C0.916656 7.29741 1.44796 8.58008 2.39367 9.5258L3.36534 10.4975L10.497 17.6291L17.6287 10.4975L18.6003 9.5258C19.0688 9.05761 19.4403 8.50171 19.6938 7.88988C19.9474 7.27804 20.0778 6.62225 20.0778 5.95997C20.0778 5.29769 19.9474 4.64189 19.6938 4.03006C19.4403 3.41822 19.0688 2.86233 18.6003 2.39413Z" fill="#5E93AD" stroke="#5E93AD" stroke-width="1.83333" stroke-linecap="round"/>
</svg>
